<?xml version='1.0' encoding='UTF-8' standalone='no'?>
<svg width="420pt" xmlns:xlink="http://www.w3.org/1999/xlink" viewBox="0 0 420 289" height="289pt" xmlns="http://www.w3.org/2000/svg">
 <title>Figure 1</title>
 <desc>
Creator: GL2PS 1.4.2, (C) 1999-2020 C. Geuzaine
For: Octave
CreationDate: Sat Mar 30 17:59:00 2024
</desc>
 <defs/>
 <polygon points="0,0 420,0 420,289 0,289" fill="#ffffff"/>
 <g>
  <polygon shape-rendering="crispEdges" points="0,289 420,289 420,0 0,0" fill="#ffffff"/>
  <clipPath id="cp00420289">
   <polygon points="0,289 420,289 420,0 0,0"/>
  </clipPath>
  <g clip-path="url(#cp00420289)">
   <polygon shape-rendering="crispEdges" points="54.6239,119.749 380.266,119.749 380.266,38.2077 54.6239,38.2077" fill="#ffffff"/>
   <polyline stroke="#262626" stroke-linejoin="miter" points="54.6239,119.749 54.6239,116.511" fill="none" stroke-width="0.5" stroke-linecap="butt"/>
   <polyline stroke="#262626" stroke-linejoin="miter" points="54.6239,38.2077 54.6239,41.4459" fill="none" stroke-width="0.5" stroke-linecap="butt"/>
   <polyline stroke="#262626" stroke-linejoin="miter" points="136.034,119.749 136.034,116.511" fill="none" stroke-width="0.5" stroke-linecap="butt"/>
   <polyline stroke="#262626" stroke-linejoin="miter" points="136.034,38.2077 136.034,41.4459" fill="none" stroke-width="0.5" stroke-linecap="butt"/>
   <polyline stroke="#262626" stroke-linejoin="miter" points="217.445,119.749 217.445,116.511" fill="none" stroke-width="0.5" stroke-linecap="butt"/>
   <polyline stroke="#262626" stroke-linejoin="miter" points="217.445,38.2077 217.445,41.4459" fill="none" stroke-width="0.5" stroke-linecap="butt"/>
   <polyline stroke="#262626" stroke-linejoin="miter" points="298.856,119.749 298.856,116.511" fill="none" stroke-width="0.5" stroke-linecap="butt"/>
   <polyline stroke="#262626" stroke-linejoin="miter" points="298.856,38.2077 298.856,41.4459" fill="none" stroke-width="0.5" stroke-linecap="butt"/>
   <polyline stroke="#262626" stroke-linejoin="miter" points="380.266,119.749 380.266,116.511" fill="none" stroke-width="0.5" stroke-linecap="butt"/>
   <polyline stroke="#262626" stroke-linejoin="miter" points="380.266,38.2077 380.266,41.4459" fill="none" stroke-width="0.5" stroke-linecap="butt"/>
   <g font-weight="normal" font-family="FreeSans" font-style="normal" transform="translate(51.6239,135.207) rotate(-0,3,-8)" xml:space="preserve" font-size="10">
    <text y="-0" x="0 " fill="rgb(38,38,38)">0</text>
   </g>
   <g font-weight="normal" font-family="FreeSans" font-style="normal" transform="translate(133.034,135.207) rotate(-0,3,-8)" xml:space="preserve" font-size="10">
    <text y="-0" x="0 " fill="rgb(38,38,38)">2</text>
   </g>
   <g font-weight="normal" font-family="FreeSans" font-style="normal" transform="translate(214.445,135.207) rotate(-0,3,-8)" xml:space="preserve" font-size="10">
    <text y="-0" x="0 " fill="rgb(38,38,38)">4</text>
   </g>
   <g font-weight="normal" font-family="FreeSans" font-style="normal" transform="translate(295.856,135.207) rotate(-0,3,-8)" xml:space="preserve" font-size="10">
    <text y="-0" x="0 " fill="rgb(38,38,38)">6</text>
   </g>
   <g font-weight="normal" font-family="FreeSans" font-style="normal" transform="translate(377.266,135.207) rotate(-0,3,-8)" xml:space="preserve" font-size="10">
    <text y="-0" x="0 " fill="rgb(38,38,38)">8</text>
   </g>
   <polyline stroke="#262626" stroke-linejoin="miter" points="54.6239,119.749 57.8767,119.749" fill="none" stroke-width="0.5" stroke-linecap="butt"/>
   <polyline stroke="#262626" stroke-linejoin="miter" points="380.266,119.749 377.013,119.749" fill="none" stroke-width="0.5" stroke-linecap="butt"/>
   <polyline stroke="#262626" stroke-linejoin="miter" points="54.6239,103.441 57.8767,103.441" fill="none" stroke-width="0.5" stroke-linecap="butt"/>
   <polyline stroke="#262626" stroke-linejoin="miter" points="380.266,103.441 377.013,103.441" fill="none" stroke-width="0.5" stroke-linecap="butt"/>
   <polyline stroke="#262626" stroke-linejoin="miter" points="54.6239,87.1326 57.8767,87.1326" fill="none" stroke-width="0.5" stroke-linecap="butt"/>
   <polyline stroke="#262626" stroke-linejoin="miter" points="380.266,87.1326 377.013,87.1326" fill="none" stroke-width="0.5" stroke-linecap="butt"/>
   <polyline stroke="#262626" stroke-linejoin="miter" points="54.6239,70.8243 57.8767,70.8243" fill="none" stroke-width="0.5" stroke-linecap="butt"/>
   <polyline stroke="#262626" stroke-linejoin="miter" points="380.266,70.8243 377.013,70.8243" fill="none" stroke-width="0.5" stroke-linecap="butt"/>
   <polyline stroke="#262626" stroke-linejoin="miter" points="54.6239,54.516 57.8767,54.516" fill="none" stroke-width="0.5" stroke-linecap="butt"/>
   <polyline stroke="#262626" stroke-linejoin="miter" points="380.266,54.516 377.013,54.516" fill="none" stroke-width="0.5" stroke-linecap="butt"/>
   <polyline stroke="#262626" stroke-linejoin="miter" points="54.6239,38.2077 57.8767,38.2077" fill="none" stroke-width="0.5" stroke-linecap="butt"/>
   <polyline stroke="#262626" stroke-linejoin="miter" points="380.266,38.2077 377.013,38.2077" fill="none" stroke-width="0.5" stroke-linecap="butt"/>
   <g font-weight="normal" font-family="FreeSans" font-style="normal" transform="translate(40.6294,123.749) rotate(-0,9,-4)" xml:space="preserve" font-size="10">
    <text y="-0" x="0 3 " fill="rgb(38,38,38)">-4</text>
   </g>
   <g font-weight="normal" font-family="FreeSans" font-style="normal" transform="translate(40.6294,107.441) rotate(-0,9,-4)" xml:space="preserve" font-size="10">
    <text y="-0" x="0 3 " fill="rgb(38,38,38)">-2</text>
   </g>
   <g font-weight="normal" font-family="FreeSans" font-style="normal" transform="translate(43.6294,91.1326) rotate(-0,6,-4)" xml:space="preserve" font-size="10">
    <text y="-0" x="0 " fill="rgb(38,38,38)">0</text>
   </g>
   <g font-weight="normal" font-family="FreeSans" font-style="normal" transform="translate(43.6294,74.8243) rotate(-0,6,-4)" xml:space="preserve" font-size="10">
    <text y="-0" x="0 " fill="rgb(38,38,38)">2</text>
   </g>
   <g font-weight="normal" font-family="FreeSans" font-style="normal" transform="translate(43.6294,58.516) rotate(-0,6,-4)" xml:space="preserve" font-size="10">
    <text y="-0" x="0 " fill="rgb(38,38,38)">4</text>
   </g>
   <g font-weight="normal" font-family="FreeSans" font-style="normal" transform="translate(43.6294,42.2077) rotate(-0,6,-4)" xml:space="preserve" font-size="10">
    <text y="-0" x="0 " fill="rgb(38,38,38)">6</text>
   </g>
   <polyline stroke="#262626" stroke-linejoin="miter" points="54.6239,119.749 380.266,119.749" fill="none" stroke-width="0.5" stroke-linecap="square" stroke-dasharray="16,0"/>
   <polyline stroke="#262626" stroke-linejoin="miter" points="54.6239,38.2077 380.266,38.2077" fill="none" stroke-width="0.5" stroke-linecap="square" stroke-dasharray="16,0"/>
   <polyline stroke="#262626" stroke-linejoin="miter" points="54.6239,119.749 54.6239,38.2077" fill="none" stroke-width="0.5" stroke-linecap="square" stroke-dasharray="16,0"/>
   <polyline stroke="#262626" stroke-linejoin="miter" points="380.266,119.749 380.266,38.2077" fill="none" stroke-width="0.5" stroke-linecap="square" stroke-dasharray="16,0"/>
   <g font-weight="bold" font-family="FreeSans" font-style="normal" transform="translate(164.445,28.2077) rotate(-0,53,0)" xml:space="preserve" font-size="11">
    <text y="-3" x="0 8 15 22 28 35 38 45 51 57 64 67 73 76 80 86 93 96 102 " fill="rgb(0,0,0)">Convolução circular</text>
   </g>
   <polyline stroke="#0071bc" stroke-linejoin="round" points="54.6239,87.1326 54.6239,87.1326" fill="none" stroke-width="0.5" stroke-linecap="butt"/>
   <polyline stroke="#0071bc" stroke-linejoin="round" points="95.3292,87.1326 95.3292,70.8243" fill="none" stroke-width="0.5" stroke-linecap="butt"/>
   <polyline stroke="#0071bc" stroke-linejoin="round" points="136.034,87.1326 136.034,119.749" fill="none" stroke-width="0.5" stroke-linecap="butt"/>
   <polyline stroke="#0071bc" stroke-linejoin="round" points="176.74,87.1326 176.74,103.441" fill="none" stroke-width="0.5" stroke-linecap="butt"/>
   <polyline stroke="#0071bc" stroke-linejoin="round" points="217.445,87.1326 217.445,46.3619" fill="none" stroke-width="0.5" stroke-linecap="butt"/>
   <polyline stroke="#0071bc" stroke-linejoin="round" points="258.15,87.1326 258.15,62.6702" fill="none" stroke-width="0.5" stroke-linecap="butt"/>
   <polyline stroke="#0071bc" stroke-linejoin="round" points="298.856,87.1326 298.856,95.2868" fill="none" stroke-width="0.5" stroke-linecap="butt"/>
   <polyline stroke="#0071bc" stroke-linejoin="round" points="339.561,87.1326 339.561,119.749" fill="none" stroke-width="0.5" stroke-linecap="butt"/>
   <polyline stroke="#0071bc" stroke-linejoin="round" points="380.266,87.1326 380.266,62.6702" fill="none" stroke-width="0.5" stroke-linecap="butt"/>
   <polyline stroke="#0071bc" stroke-linejoin="round" points="57.6239,87.1326 57.0509,88.896 55.5509,89.9858 53.6968,89.9858 52.1968,88.896 51.6239,87.1326 52.1968,85.3693 53.6968,84.2794 55.5509,84.2794 57.0509,85.3693 57.6239,87.1326" fill="none" stroke-width="0.5" stroke-linecap="round"/>
   <polyline stroke="#0071bc" stroke-linejoin="round" points="98.3292,70.8243 97.7562,72.5877 96.2562,73.6775 94.4021,73.6775 92.9021,72.5877 92.3292,70.8243 92.9021,69.061 94.4021,67.9711 96.2562,67.9711 97.7562,69.061 98.3292,70.8243" fill="none" stroke-width="0.5" stroke-linecap="round"/>
   <polyline stroke="#0071bc" stroke-linejoin="round" points="139.034,119.749 138.462,121.513 136.962,122.602 135.107,122.602 133.607,121.513 133.034,119.749 133.607,117.986 135.107,116.896 136.962,116.896 138.462,117.986 139.034,119.749" fill="none" stroke-width="0.5" stroke-linecap="round"/>
   <polyline stroke="#0071bc" stroke-linejoin="round" points="179.74,103.441 179.167,105.204 177.667,106.294 175.813,106.294 174.313,105.204 173.74,103.441 174.313,101.678 175.813,100.588 177.667,100.588 179.167,101.678 179.74,103.441" fill="none" stroke-width="0.5" stroke-linecap="round"/>
   <polyline stroke="#0071bc" stroke-linejoin="round" points="220.445,46.3619 219.872,48.1252 218.372,49.215 216.518,49.215 215.018,48.1252 214.445,46.3619 215.018,44.5985 216.518,43.5087 218.372,43.5087 219.872,44.5985 220.445,46.3619" fill="none" stroke-width="0.5" stroke-linecap="round"/>
   <polyline stroke="#0071bc" stroke-linejoin="round" points="261.15,62.6702 260.577,64.4335 259.077,65.5233 257.223,65.5233 255.723,64.4335 255.15,62.6702 255.723,60.9068 257.223,59.817 259.077,59.817 260.577,60.9068 261.15,62.6702" fill="none" stroke-width="0.5" stroke-linecap="round"/>
   <polyline stroke="#0071bc" stroke-linejoin="round" points="301.856,95.2868 301.283,97.0501 299.783,98.1399 297.929,98.1399 296.429,97.0501 295.856,95.2868 296.429,93.5234 297.929,92.4336 299.783,92.4336 301.283,93.5234 301.856,95.2868" fill="none" stroke-width="0.5" stroke-linecap="round"/>
   <polyline stroke="#0071bc" stroke-linejoin="round" points="342.561,119.749 341.988,121.513 340.488,122.602 338.634,122.602 337.134,121.513 336.561,119.749 337.134,117.986 338.634,116.896 340.488,116.896 341.988,117.986 342.561,119.749" fill="none" stroke-width="0.5" stroke-linecap="round"/>
   <polyline stroke="#0071bc" stroke-linejoin="round" points="383.266,62.6702 382.693,64.4335 381.193,65.5233 379.339,65.5233 377.839,64.4335 377.266,62.6702 377.839,60.9068 379.339,59.817 381.193,59.817 382.693,60.9068 383.266,62.6702" fill="none" stroke-width="0.5" stroke-linecap="round"/>
   <polyline stroke="#000000" stroke-linejoin="round" points="54.6239,87.1326 380.266,87.1326" fill="none" stroke-width="0.5" stroke-linecap="butt"/>
  </g>
  <clipPath id="cp00420289">
   <polygon points="0,289 420,289 420,0 0,0"/>
  </clipPath>
  <g clip-path="url(#cp00420289)">
   <polygon shape-rendering="crispEdges" points="54.6239,257.768 380.266,257.768 380.266,176.226 54.6239,176.226" fill="#ffffff"/>
   <polyline stroke="#262626" stroke-linejoin="miter" points="54.6239,257.768 54.6239,254.529" fill="none" stroke-width="0.5" stroke-linecap="butt"/>
   <polyline stroke="#262626" stroke-linejoin="miter" points="54.6239,176.226 54.6239,179.464" fill="none" stroke-width="0.5" stroke-linecap="butt"/>
   <polyline stroke="#262626" stroke-linejoin="miter" points="136.034,257.768 136.034,254.529" fill="none" stroke-width="0.5" stroke-linecap="butt"/>
   <polyline stroke="#262626" stroke-linejoin="miter" points="136.034,176.226 136.034,179.464" fill="none" stroke-width="0.5" stroke-linecap="butt"/>
   <polyline stroke="#262626" stroke-linejoin="miter" points="217.445,257.768 217.445,254.529" fill="none" stroke-width="0.5" stroke-linecap="butt"/>
   <polyline stroke="#262626" stroke-linejoin="miter" points="217.445,176.226 217.445,179.464" fill="none" stroke-width="0.5" stroke-linecap="butt"/>
   <polyline stroke="#262626" stroke-linejoin="miter" points="298.856,257.768 298.856,254.529" fill="none" stroke-width="0.5" stroke-linecap="butt"/>
   <polyline stroke="#262626" stroke-linejoin="miter" points="298.856,176.226 298.856,179.464" fill="none" stroke-width="0.5" stroke-linecap="butt"/>
   <polyline stroke="#262626" stroke-linejoin="miter" points="380.266,257.768 380.266,254.529" fill="none" stroke-width="0.5" stroke-linecap="butt"/>
   <polyline stroke="#262626" stroke-linejoin="miter" points="380.266,176.226 380.266,179.464" fill="none" stroke-width="0.5" stroke-linecap="butt"/>
   <g font-weight="normal" font-family="FreeSans" font-style="normal" transform="translate(51.6239,273.226) rotate(-0,3,-8)" xml:space="preserve" font-size="10">
    <text y="-0" x="0 " fill="rgb(38,38,38)">0</text>
   </g>
   <g font-weight="normal" font-family="FreeSans" font-style="normal" transform="translate(133.034,273.226) rotate(-0,3,-8)" xml:space="preserve" font-size="10">
    <text y="-0" x="0 " fill="rgb(38,38,38)">2</text>
   </g>
   <g font-weight="normal" font-family="FreeSans" font-style="normal" transform="translate(214.445,273.226) rotate(-0,3,-8)" xml:space="preserve" font-size="10">
    <text y="-0" x="0 " fill="rgb(38,38,38)">4</text>
   </g>
   <g font-weight="normal" font-family="FreeSans" font-style="normal" transform="translate(295.856,273.226) rotate(-0,3,-8)" xml:space="preserve" font-size="10">
    <text y="-0" x="0 " fill="rgb(38,38,38)">6</text>
   </g>
   <g font-weight="normal" font-family="FreeSans" font-style="normal" transform="translate(377.266,273.226) rotate(-0,3,-8)" xml:space="preserve" font-size="10">
    <text y="-0" x="0 " fill="rgb(38,38,38)">8</text>
   </g>
   <polyline stroke="#262626" stroke-linejoin="miter" points="54.6239,257.768 57.8767,257.768" fill="none" stroke-width="0.5" stroke-linecap="butt"/>
   <polyline stroke="#262626" stroke-linejoin="miter" points="380.266,257.768 377.013,257.768" fill="none" stroke-width="0.5" stroke-linecap="butt"/>
   <polyline stroke="#262626" stroke-linejoin="miter" points="54.6239,241.459 57.8767,241.459" fill="none" stroke-width="0.5" stroke-linecap="butt"/>
   <polyline stroke="#262626" stroke-linejoin="miter" points="380.266,241.459 377.013,241.459" fill="none" stroke-width="0.5" stroke-linecap="butt"/>
   <polyline stroke="#262626" stroke-linejoin="miter" points="54.6239,225.151 57.8767,225.151" fill="none" stroke-width="0.5" stroke-linecap="butt"/>
   <polyline stroke="#262626" stroke-linejoin="miter" points="380.266,225.151 377.013,225.151" fill="none" stroke-width="0.5" stroke-linecap="butt"/>
   <polyline stroke="#262626" stroke-linejoin="miter" points="54.6239,208.843 57.8767,208.843" fill="none" stroke-width="0.5" stroke-linecap="butt"/>
   <polyline stroke="#262626" stroke-linejoin="miter" points="380.266,208.843 377.013,208.843" fill="none" stroke-width="0.5" stroke-linecap="butt"/>
   <polyline stroke="#262626" stroke-linejoin="miter" points="54.6239,192.534 57.8767,192.534" fill="none" stroke-width="0.5" stroke-linecap="butt"/>
   <polyline stroke="#262626" stroke-linejoin="miter" points="380.266,192.534 377.013,192.534" fill="none" stroke-width="0.5" stroke-linecap="butt"/>
   <polyline stroke="#262626" stroke-linejoin="miter" points="54.6239,176.226 57.8767,176.226" fill="none" stroke-width="0.5" stroke-linecap="butt"/>
   <polyline stroke="#262626" stroke-linejoin="miter" points="380.266,176.226 377.013,176.226" fill="none" stroke-width="0.5" stroke-linecap="butt"/>
   <g font-weight="normal" font-family="FreeSans" font-style="normal" transform="translate(40.6294,261.768) rotate(-0,9,-4)" xml:space="preserve" font-size="10">
    <text y="-0" x="0 3 " fill="rgb(38,38,38)">-4</text>
   </g>
   <g font-weight="normal" font-family="FreeSans" font-style="normal" transform="translate(40.6294,245.459) rotate(-0,9,-4)" xml:space="preserve" font-size="10">
    <text y="-0" x="0 3 " fill="rgb(38,38,38)">-2</text>
   </g>
   <g font-weight="normal" font-family="FreeSans" font-style="normal" transform="translate(43.6294,229.151) rotate(-0,6,-4)" xml:space="preserve" font-size="10">
    <text y="-0" x="0 " fill="rgb(38,38,38)">0</text>
   </g>
   <g font-weight="normal" font-family="FreeSans" font-style="normal" transform="translate(43.6294,212.843) rotate(-0,6,-4)" xml:space="preserve" font-size="10">
    <text y="-0" x="0 " fill="rgb(38,38,38)">2</text>
   </g>
   <g font-weight="normal" font-family="FreeSans" font-style="normal" transform="translate(43.6294,196.534) rotate(-0,6,-4)" xml:space="preserve" font-size="10">
    <text y="-0" x="0 " fill="rgb(38,38,38)">4</text>
   </g>
   <g font-weight="normal" font-family="FreeSans" font-style="normal" transform="translate(43.6294,180.226) rotate(-0,6,-4)" xml:space="preserve" font-size="10">
    <text y="-0" x="0 " fill="rgb(38,38,38)">6</text>
   </g>
   <polyline stroke="#262626" stroke-linejoin="miter" points="54.6239,257.768 380.266,257.768" fill="none" stroke-width="0.5" stroke-linecap="square" stroke-dasharray="16,0"/>
   <polyline stroke="#262626" stroke-linejoin="miter" points="54.6239,176.226 380.266,176.226" fill="none" stroke-width="0.5" stroke-linecap="square" stroke-dasharray="16,0"/>
   <polyline stroke="#262626" stroke-linejoin="miter" points="54.6239,257.768 54.6239,176.226" fill="none" stroke-width="0.5" stroke-linecap="square" stroke-dasharray="16,0"/>
   <polyline stroke="#262626" stroke-linejoin="miter" points="380.266,257.768 380.266,176.226" fill="none" stroke-width="0.5" stroke-linecap="square" stroke-dasharray="16,0"/>
   <g font-weight="bold" font-family="FreeSans" font-style="normal" transform="translate(167.445,166.226) rotate(-0,50,0)" xml:space="preserve" font-size="11">
    <text y="-3" x="0 8 15 22 28 35 38 45 51 57 64 67 74 77 84 90 96 " fill="rgb(0,0,0)">Convolução Linear</text>
   </g>
   <polyline stroke="#0071bc" stroke-linejoin="round" points="54.6239,225.151 54.6239,225.151" fill="none" stroke-width="0.5" stroke-linecap="butt"/>
   <polyline stroke="#0071bc" stroke-linejoin="round" points="95.3292,225.151 95.3292,208.843" fill="none" stroke-width="0.5" stroke-linecap="butt"/>
   <polyline stroke="#0071bc" stroke-linejoin="round" points="136.034,225.151 136.034,257.768" fill="none" stroke-width="0.5" stroke-linecap="butt"/>
   <polyline stroke="#0071bc" stroke-linejoin="round" points="176.74,225.151 176.74,241.459" fill="none" stroke-width="0.5" stroke-linecap="butt"/>
   <polyline stroke="#0071bc" stroke-linejoin="round" points="217.445,225.151 217.445,184.38" fill="none" stroke-width="0.5" stroke-linecap="butt"/>
   <polyline stroke="#0071bc" stroke-linejoin="round" points="258.15,225.151 258.15,200.689" fill="none" stroke-width="0.5" stroke-linecap="butt"/>
   <polyline stroke="#0071bc" stroke-linejoin="round" points="298.856,225.151 298.856,233.305" fill="none" stroke-width="0.5" stroke-linecap="butt"/>
   <polyline stroke="#0071bc" stroke-linejoin="round" points="339.561,225.151 339.561,257.768" fill="none" stroke-width="0.5" stroke-linecap="butt"/>
   <polyline stroke="#0071bc" stroke-linejoin="round" points="380.266,225.151 380.266,200.689" fill="none" stroke-width="0.5" stroke-linecap="butt"/>
   <polyline stroke="#0071bc" stroke-linejoin="round" points="57.6239,225.151 57.0509,226.914 55.5509,228.004 53.6968,228.004 52.1968,226.914 51.6239,225.151 52.1968,223.388 53.6968,222.298 55.5509,222.298 57.0509,223.388 57.6239,225.151" fill="none" stroke-width="0.5" stroke-linecap="round"/>
   <polyline stroke="#0071bc" stroke-linejoin="round" points="98.3292,208.843 97.7562,210.606 96.2562,211.696 94.4021,211.696 92.9021,210.606 92.3292,208.843 92.9021,207.079 94.4021,205.99 96.2562,205.99 97.7562,207.079 98.3292,208.843" fill="none" stroke-width="0.5" stroke-linecap="round"/>
   <polyline stroke="#0071bc" stroke-linejoin="round" points="139.034,257.768 138.462,259.531 136.962,260.621 135.107,260.621 133.607,259.531 133.034,257.768 133.607,256.004 135.107,254.915 136.962,254.915 138.462,256.004 139.034,257.768" fill="none" stroke-width="0.5" stroke-linecap="round"/>
   <polyline stroke="#0071bc" stroke-linejoin="round" points="179.74,241.459 179.167,243.223 177.667,244.313 175.813,244.313 174.313,243.223 173.74,241.459 174.313,239.696 175.813,238.606 177.667,238.606 179.167,239.696 179.74,241.459" fill="none" stroke-width="0.5" stroke-linecap="round"/>
   <polyline stroke="#0071bc" stroke-linejoin="round" points="220.445,184.38 219.872,186.144 218.372,187.233 216.518,187.233 215.018,186.144 214.445,184.38 215.018,182.617 216.518,181.527 218.372,181.527 219.872,182.617 220.445,184.38" fill="none" stroke-width="0.5" stroke-linecap="round"/>
   <polyline stroke="#0071bc" stroke-linejoin="round" points="261.15,200.689 260.577,202.452 259.077,203.542 257.223,203.542 255.723,202.452 255.15,200.689 255.723,198.925 257.223,197.835 259.077,197.835 260.577,198.925 261.15,200.689" fill="none" stroke-width="0.5" stroke-linecap="round"/>
   <polyline stroke="#0071bc" stroke-linejoin="round" points="301.856,233.305 301.283,235.069 299.783,236.158 297.929,236.158 296.429,235.069 295.856,233.305 296.429,231.542 297.929,230.452 299.783,230.452 301.283,231.542 301.856,233.305" fill="none" stroke-width="0.5" stroke-linecap="round"/>
   <polyline stroke="#0071bc" stroke-linejoin="round" points="342.561,257.768 341.988,259.531 340.488,260.621 338.634,260.621 337.134,259.531 336.561,257.768 337.134,256.004 338.634,254.915 340.488,254.915 341.988,256.004 342.561,257.768" fill="none" stroke-width="0.5" stroke-linecap="round"/>
   <polyline stroke="#0071bc" stroke-linejoin="round" points="383.266,200.689 382.693,202.452 381.193,203.542 379.339,203.542 377.839,202.452 377.266,200.689 377.839,198.925 379.339,197.835 381.193,197.835 382.693,198.925 383.266,200.689" fill="none" stroke-width="0.5" stroke-linecap="round"/>
   <polyline stroke="#000000" stroke-linejoin="round" points="54.6239,225.151 380.266,225.151" fill="none" stroke-width="0.5" stroke-linecap="butt"/>
  </g>
 </g>
</svg>
